<svg width="52" height="52" viewBox="0 0 52 52" fill="none" xmlns="http://www.w3.org/2000/svg">
<path d="M19.5873 9.19086V9.19086C19.5873 9.8268 19.5873 10.1448 19.6589 10.4052C19.846 11.0849 20.377 11.6159 21.0567 11.803C21.3171 11.8746 21.6351 11.8746 22.2711 11.8746H29.7856C30.4216 11.8746 30.7395 11.8746 31 11.803C31.6797 11.6159 32.2107 11.0849 32.3977 10.4052C32.4694 10.1448 32.4694 9.8268 32.4694 9.19086V9.19086M19.5873 9.19086V9.19086C19.5873 8.55491 19.5873 8.23694 19.6589 7.97647C19.846 7.2968 20.377 6.76577 21.0567 6.57875C21.3171 6.50708 21.6351 6.50708 22.2711 6.50708H29.7856C30.4216 6.50708 30.7395 6.50708 31 6.57875C31.6797 6.76577 32.2107 7.2968 32.3977 7.97647C32.4694 8.23694 32.4694 8.55491 32.4694 9.19086V9.19086M19.5873 9.19086H18.2197C16.3341 9.19086 15.3913 9.19086 14.8055 9.77664C14.2197 10.3624 14.2197 11.3052 14.2197 13.1909V39.0799C14.2197 41.437 14.2197 42.6155 14.952 43.3477C15.6842 44.0799 16.8627 44.0799 19.2197 44.0799H32.837C35.194 44.0799 36.3725 44.0799 37.1047 43.3477C37.837 42.6155 37.837 41.437 37.837 39.0799V13.1909C37.837 11.3052 37.837 10.3624 37.2512 9.77664C36.6654 9.19086 35.7226 9.19086 33.837 9.19086H32.4694" stroke="#337AB7"/>
<path opacity="0.5" d="M18.5137 30.1243H19.4012C19.5116 30.1243 19.6089 30.0518 19.6406 29.9461L22.6261 19.9944C22.6716 19.843 22.8901 19.8558 22.9175 20.0114L25.9058 36.9452C25.934 37.1046 26.1598 37.1126 26.1991 36.9555L28.1279 29.2401C28.1557 29.1288 28.2557 29.0508 28.3705 29.0508H33.5428" stroke="#337AB7" stroke-linecap="round"/>
</svg>
