<svg width="52" height="51" viewBox="0 0 52 51" fill="none" xmlns="http://www.w3.org/2000/svg">
<path opacity="0.5" d="M12.2432 39.187C12.2432 38.2442 12.2432 37.7728 12.5361 37.4799C12.829 37.187 13.3004 37.187 14.2432 37.187H38.1544C39.0972 37.187 39.5686 37.187 39.8615 37.4799C40.1544 37.7728 40.1544 38.2442 40.1544 39.187V39.3444C40.1544 39.8158 40.1544 40.0515 40.008 40.1979C39.8615 40.3444 39.6258 40.3444 39.1544 40.3444H13.2432C12.7718 40.3444 12.5361 40.3444 12.3896 40.1979C12.2432 40.0515 12.2432 39.8158 12.2432 39.3444V39.187Z" stroke="#337AB7"/>
<path d="M13.1865 25.8626C13.1865 20.3428 13.1865 17.5829 14.6565 15.6888C15.0158 15.2258 15.4318 14.8097 15.8949 14.4504C17.789 12.9805 20.5489 12.9805 26.0686 12.9805V12.9805C31.5884 12.9805 34.3483 12.9805 36.2424 14.4504C36.7055 14.8097 37.1215 15.2258 37.4808 15.6888C38.9508 17.5829 38.9508 20.3428 38.9508 25.8626V32.0297C38.9508 32.9725 38.9508 33.4439 38.6579 33.7368C38.365 34.0297 37.8936 34.0297 36.9508 34.0297H15.1865C14.2437 34.0297 13.7723 34.0297 13.4794 33.7368C13.1865 33.4439 13.1865 32.9725 13.1865 32.0297V25.8626Z" stroke="#337AB7"/>
<path opacity="0.5" d="M24.2879 20.1073C24.1858 20.3491 24.1858 20.6555 24.1858 21.2685V22.521C24.1858 22.5507 24.1858 22.5656 24.1763 22.5749C24.1669 22.5841 24.1517 22.5841 24.1214 22.5841H22.8439C22.2186 22.5841 21.906 22.5841 21.6594 22.6842C21.3306 22.8178 21.0694 23.0739 20.9332 23.3962C20.8311 23.638 20.8311 23.9445 20.8311 24.5575C20.8311 25.1705 20.8311 25.4769 20.9332 25.7187C21.0694 26.0411 21.3306 26.2972 21.6594 26.4307C21.906 26.5308 22.2186 26.5308 22.8439 26.5308H24.1214C24.1517 26.5308 24.1669 26.5308 24.1763 26.5401C24.1858 26.5493 24.1858 26.5642 24.1858 26.594V27.8464C24.1858 28.4594 24.1858 28.7659 24.2879 29.0077C24.4241 29.33 24.6853 29.5861 25.0141 29.7196C25.2607 29.8198 25.5734 29.8198 26.1986 29.8198C26.8238 29.8198 27.1365 29.8198 27.3831 29.7196C27.7119 29.5861 27.9731 29.33 28.1093 29.0077C28.2114 28.7659 28.2114 28.4594 28.2114 27.8464V26.594C28.2114 26.5642 28.2114 26.5493 28.2209 26.5401C28.2303 26.5308 28.2455 26.5308 28.2758 26.5308H29.5533C30.1786 26.5308 30.4912 26.5308 30.7378 26.4307C31.0666 26.2972 31.3278 26.0411 31.464 25.7187C31.5662 25.4769 31.5662 25.1705 31.5662 24.5575C31.5662 23.9445 31.5662 23.638 31.464 23.3962C31.3278 23.0739 31.0666 22.8178 30.7378 22.6842C30.4912 22.5841 30.1786 22.5841 29.5533 22.5841H28.2758C28.2455 22.5841 28.2303 22.5841 28.2209 22.5749C28.2114 22.5656 28.2114 22.5507 28.2114 22.521V21.2685C28.2114 20.6555 28.2114 20.3491 28.1093 20.1073C27.9731 19.7849 27.7119 19.5288 27.3831 19.3953C27.1365 19.2952 26.8238 19.2952 26.1986 19.2952C25.5734 19.2952 25.2607 19.2952 25.0141 19.3953C24.6853 19.5288 24.4241 19.7849 24.2879 20.1073Z" stroke="#337AB7"/>
<path d="M26.1778 7.71802H26.1992V8.77048H26.1778V7.71802Z" stroke="#337AB7" stroke-linejoin="round"/>
<path d="M7.94922 25.6308L7.94922 25.6098L9.02273 25.6098L9.02273 25.6308L7.94922 25.6308Z" stroke="#337AB7" stroke-linejoin="round"/>
<path d="M43.375 25.6308L43.375 25.6098L44.4485 25.6098L44.4485 25.6308L43.375 25.6308Z" stroke="#337AB7" stroke-linejoin="round"/>
<path d="M39.0811 12.9802L39.0962 12.9951L38.3372 13.7393L38.322 13.7244L39.0811 12.9802Z" stroke="#337AB7" stroke-linejoin="round"/>
<path d="M13.3164 12.9802L13.3012 12.9951L14.0603 13.7393L14.0755 13.7244L13.3164 12.9802Z" stroke="#337AB7" stroke-linejoin="round"/>
</svg>
