<svg width="52" height="52" viewBox="0 0 52 52" fill="none" xmlns="http://www.w3.org/2000/svg">
<path d="M15.293 41.9724C15.293 40.8678 16.1884 39.9724 17.293 39.9724H34.7632C35.8677 39.9724 36.7632 40.8678 36.7632 41.9724V43.7665C36.7632 44.0426 36.5393 44.2665 36.2632 44.2665H15.793C15.5168 44.2665 15.293 44.0426 15.293 43.7665V41.9724Z" stroke="#337AB7"/>
<path d="M19.4772 32.4577C19.4772 32.4577 22.4036 34.6512 24.1764 35.016C25.7562 35.341 27.3936 35.2445 28.9242 34.7361C30.4547 34.2277 31.8245 33.3254 32.8959 32.1198C33.9672 30.9143 34.7023 29.448 35.0273 27.8683C35.3524 26.2885 35.2558 24.6511 34.7475 23.1205C34.5039 22.3874 34.17 21.6911 33.7557 21.0468L33.5427 20.6491M14.8721 32.4577C14.8721 32.4577 16.435 34.7254 17.4708 35.6459C19.1611 37.1481 21.217 38.1788 23.4319 38.6345C25.6468 39.0902 27.9427 38.9548 30.0887 38.2421C32.2347 37.5293 34.1552 36.2642 35.6573 34.5739C37.1594 32.8836 38.1902 30.8277 38.6459 28.6128C39.1016 26.3979 38.9662 24.102 38.2535 21.956C37.8794 20.8299 37.3533 19.7659 36.6935 18.7919L36.5354 18.6206M33.5427 20.6491C34.9002 20.6491 36.0615 19.8091 36.5354 18.6206M33.5427 20.6491C32.4082 20.6491 31.4108 20.0625 30.8371 19.1762M36.5354 18.6206C36.6824 18.2519 36.7632 17.8497 36.7632 17.4285C36.7632 16.5988 36.4494 15.8424 35.9341 15.2715M30.8371 19.1762C30.5113 18.6728 30.3221 18.0728 30.3221 17.4285C30.3221 15.6499 31.764 14.208 33.5427 14.208C34.4916 14.208 35.3447 14.6184 35.9341 15.2715M30.8371 19.1762L24.6037 23.9515C24.0044 24.4106 23.1731 24.2613 22.714 23.662L20.0104 20.2034C19.7895 19.9152 19.6791 19.771 19.6087 19.6342C19.2809 18.9967 19.3834 18.2227 19.8659 17.6925C19.9695 17.5787 20.1136 17.4683 20.4019 17.2474L31.1223 9.03476C32.1369 8.25744 32.6442 7.86879 33.1976 7.8521C33.3832 7.8465 33.5685 7.87104 33.7463 7.92478C34.2762 8.08493 34.6648 8.59226 35.4422 9.60692L36.7632 11.3313C37.2768 12.0018 37.5337 12.337 37.6193 12.6877C37.7212 13.1054 37.6629 13.546 37.4557 13.9227C37.2817 14.239 36.9465 14.4959 36.276 15.0095L35.9341 15.2715" stroke="#337AB7"/>
<path d="M14.2197 32.4578H22.8078" stroke="#337AB7" stroke-linecap="round"/>
<path opacity="0.5" d="M35.6107 9.47012C35.2038 8.93905 35.3758 8.23625 35.8928 7.85997C36.6704 7.29408 37.7289 7.50182 38.2997 8.24689L38.8154 8.92011C39.3862 9.66518 39.3112 10.7413 38.5624 11.3448C38.0607 11.7491 37.3485 11.7386 36.9344 11.198L36.2725 10.3341L35.6107 9.47012Z" stroke="#337AB7"/>
<path opacity="0.5" d="M20.5154 25.3453L20.5154 25.3453L22.714 23.6619L20.0104 20.2034L17.8394 21.8528L17.8394 21.8528C17.3241 22.2477 17.0664 22.4451 16.9211 22.6806C16.6962 23.0452 16.6375 23.4883 16.7598 23.8988C16.8389 24.1641 17.0363 24.4218 17.4311 24.9371L17.4311 24.9371C17.826 25.4524 18.0234 25.71 18.2589 25.8553C18.6235 26.0802 19.0667 26.1389 19.4772 26.0166C19.7424 25.9376 20.0001 25.7401 20.5154 25.3453Z" stroke="#337AB7"/>
</svg>
