<svg width="53" height="52" viewBox="0 0 53 52" fill="none" xmlns="http://www.w3.org/2000/svg">
<path opacity="0.5" d="M26.3693 22.708C35.8691 22.708 41.5123 14.4386 42.4292 15.1493C42.4487 15.1644 42.437 15.1935 42.4124 15.1935H10.3436C10.3162 15.1935 10.3067 15.1626 10.3323 15.1532C11.3898 14.7619 16.9245 22.708 26.3693 22.708ZM26.3693 22.708V23.7815M26.3693 44.1782H34.9573M26.3693 44.1782H17.7812M26.3693 44.1782L26.3693 39.8842M26.3693 29.1491V34.5166" stroke="#337AB7" stroke-linecap="round"/>
<path d="M21.0025 39.8842C22.076 36.6637 31.7376 37.7372 31.7376 34.5167C31.7376 33.4623 30.7268 32.8977 29.2492 32.5519M25.5211 8.75243H23.2937C23.2076 8.75243 23.1311 8.80752 23.1039 8.88918L22.1076 11.8781C22.0946 11.9172 22.1318 11.9544 22.1709 11.9413L25.1743 10.9402C25.2487 10.9154 25.3018 10.8493 25.3099 10.7713L25.5211 8.75243ZM25.5211 8.75243C29.4499 6.12621 34 8.29002 36.0316 11.684M23.2948 31.833C20.3569 31.521 18.8555 30.2226 18.8555 29.1491C18.8555 26.0175 31.8488 26.9304 34.6896 24.1051" stroke="#337AB7" stroke-linecap="round"/>
</svg>
