<svg width="52" height="53" viewBox="0 0 52 53" fill="none" xmlns="http://www.w3.org/2000/svg">
<path d="M26.1992 45.8409C15.4641 41.7712 6.87598 32.3824 6.87598 21.0284C6.87598 14.6922 11.6874 9.56592 17.6197 9.56592C21.1365 9.56592 24.2475 11.3704 26.1992 14.1591C28.1508 11.3704 31.2812 9.56592 34.7787 9.56592C40.7109 9.56592 45.5223 14.6922 45.5223 21.0284C45.5223 30.631 36.9343 41.7712 26.1992 45.8409Z" stroke="#337AB7" stroke-linecap="round" stroke-linejoin="round"/>
<path opacity="0.5" d="M44.4486 26.7421H39.1846C39.1183 26.7421 39.0547 26.7157 39.0078 26.6689L36.1058 23.7668C35.9851 23.6462 35.7817 23.6792 35.7054 23.8318L32.7951 29.6524C32.7188 29.805 32.5154 29.838 32.3947 29.7174L29.6281 26.9508C29.5189 26.8415 29.3377 26.8565 29.2479 26.9822L24.3742 33.8054C24.249 33.9806 23.9756 33.9262 23.9272 33.7163L20.9776 20.9348C20.9261 20.7117 20.6267 20.6694 20.5155 20.8696L15.651 29.6256C15.5631 29.7839 15.3412 29.7991 15.2325 29.6542L12.4162 25.8992C12.3249 25.7775 12.147 25.7648 12.0394 25.8724L10.1695 27.7424C10.1226 27.7893 10.059 27.8156 9.99269 27.8156H7.94922" stroke="#337AB7" stroke-linecap="round"/>
</svg>
