<svg width="42" height="38" viewBox="0 0 42 38" fill="none" xmlns="http://www.w3.org/2000/svg">
<path d="M0.794189 2.84269V10.5241H5.06372L5.00419 0.536621C5.00419 0.536621 0.794189 0.536621 0.794189 2.84269Z" fill="url(#paint0_linear_64_462)"/>
<path d="M39.6972 0.529297H5.28252C4.17431 0.529297 3.27738 1.43041 3.28254 2.5386L3.32194 11.0109V33.7103C3.32194 35.2616 5.01156 36.2223 6.34472 35.4289L21.2115 26.5818C21.8337 26.2116 22.6073 26.2065 23.2343 26.5685L38.6972 35.4958C40.0305 36.2656 41.6972 35.3033 41.6972 33.7637V2.5293C41.6972 1.42473 40.8018 0.529297 39.6972 0.529297Z" fill="url(#paint1_linear_64_462)"/>
<defs>
<linearGradient id="paint0_linear_64_462" x1="2.89294" y1="0.529173" x2="2.89294" y2="10.5662" gradientUnits="userSpaceOnUse">
<stop stop-color="#083D6E"/>
<stop offset="1" stop-color="#666666"/>
</linearGradient>
<linearGradient id="paint1_linear_64_462" x1="22.4852" y1="37.2278" x2="22.4852" y2="0.529297" gradientUnits="userSpaceOnUse">
<stop stop-color="#BDD4E5"/>
<stop offset="1" stop-color="#337AB7"/>
</linearGradient>
</defs>
</svg>
